<svg xmlns="http://www.w3.org/2000/svg" viewBox="0 0 750 500"><g id="freepik--background-complete--inject-2"><path d="M657.88,299.06l8.29-13.37-4.12-2.55a3.74,3.74,0,0,1-1.71-3.52,22,22,0,0,0,.08-2.3,3.76,3.76,0,0,1,2-3.43l4.24-2.28-7.44-13.87L654.93,260a3.69,3.69,0,0,1-3.84-.21,23.52,23.52,0,0,0-2.13-1.32,3.69,3.69,0,0,1-1.91-3.36l.16-4.81-15.73-.49-.15,4.83a3.68,3.68,0,0,1-2.13,3.23c-.37.17-.73.36-1.09.55s-.72.39-1.06.6a3.68,3.68,0,0,1-3.86,0l-4.12-2.55-8.29,13.37,4.13,2.56a3.71,3.71,0,0,1,1.7,3.51c-.06.76-.09,1.53-.08,2.29a3.77,3.77,0,0,1-1.95,3.44l-4.24,2.27,7.44,13.87,4.24-2.27a3.76,3.76,0,0,1,3.94.27,19.63,19.63,0,0,0,1.95,1.2,3.73,3.73,0,0,1,2,3.36l-.15,4.86,15.72.49.15-4.82a3.74,3.74,0,0,1,2.18-3.25c.36-.16.7-.34,1.05-.52s.68-.38,1-.58a3.74,3.74,0,0,1,3.92,0ZM646,288.24a12.89,12.89,0,1,1,4.54-15A12.88,12.88,0,0,1,646,288.24Z" style="fill:#ebebeb"></path><path d="M609,249.83l9.54-5.51-1.68-2.92a2.62,2.62,0,0,1,.09-2.75,15.38,15.38,0,0,0,.82-1.42,2.61,2.61,0,0,1,2.33-1.45h3.38v-11h-3.38a2.63,2.63,0,0,1-2.33-1.45,15.55,15.55,0,0,0-.82-1.43,2.6,2.6,0,0,1-.09-2.74l1.68-2.92L609,210.7l-1.69,2.93a2.63,2.63,0,0,1-2.43,1.29c-.27,0-.54,0-.82,0s-.54,0-.81,0a2.62,2.62,0,0,1-2.42-1.28l-1.7-2.94-9.55,5.51,1.69,2.93a2.6,2.6,0,0,1-.09,2.74,15.48,15.48,0,0,0-.83,1.42,2.58,2.58,0,0,1-2.32,1.45h-3.38v11H588a2.59,2.59,0,0,1,2.32,1.44,14.25,14.25,0,0,0,.83,1.42,2.62,2.62,0,0,1,.09,2.75l-1.69,2.93,9.55,5.51,1.69-2.93a2.63,2.63,0,0,1,2.43-1.28l.81,0,.82,0a2.63,2.63,0,0,1,2.43,1.28ZM604,239.29a9,9,0,1,1,9-9A9,9,0,0,1,604,239.29Z" style="fill:#ebebeb"></path><path d="M86.31,92.85a2.62,2.62,0,0,1,1.29,2.43c0,.27,0,.54,0,.81s0,.55,0,.82a2.62,2.62,0,0,1-1.28,2.42L83.39,101l5.51,9.55,2.92-1.69a2.62,2.62,0,0,1,2.75.1,15.38,15.38,0,0,0,1.42.82,2.63,2.63,0,0,1,1.45,2.33v3.37h11v-3.37a2.62,2.62,0,0,1,1.44-2.33,14.17,14.17,0,0,0,1.42-.82,2.62,2.62,0,0,1,2.75-.1l2.93,1.69,5.51-9.55-2.94-1.7a2.6,2.6,0,0,1-1.28-2.42c0-.27,0-.54,0-.81s0-.54,0-.81a2.62,2.62,0,0,1,1.28-2.43l2.94-1.69L117,81.61l-2.92,1.69a2.62,2.62,0,0,1-2.75-.09,15.48,15.48,0,0,0-1.42-.83,2.61,2.61,0,0,1-1.45-2.33V76.68h-11v3.37A2.63,2.63,0,0,1,96,82.38a15.64,15.64,0,0,0-1.43.83,2.6,2.6,0,0,1-2.74.09L88.9,81.61l-5.51,9.55ZM103,87.06a9,9,0,1,1-9,9A9,9,0,0,1,103,87.06Z" style="fill:#ebebeb"></path><g id="freepik--aiZGp2--inject-2"><path d="M564.84,94.23a71.48,71.48,0,0,0-4.82,22l-.28,0h-19l-.24,0v-.54c0-.5.11-1,.16-1.5a54.28,54.28,0,0,1,1.29-7.7,59.81,59.81,0,0,1,4.34-12,.45.45,0,0,1,.47-.29h18.1Z" style="fill:#ebebeb"></path><path d="M564.25,143.5H546.31a.41.41,0,0,1-.44-.28,55.52,55.52,0,0,1-4.46-13.57,56.59,56.59,0,0,1-.88-6.87,1,1,0,0,0,0-.23V122c.1,0,.2,0,.3,0h18.9c.35,0,.33,0,.36.36.12,1.57.22,3.14.37,4.7a61.49,61.49,0,0,0,1.2,7.39,66.94,66.94,0,0,0,2.55,8.79A2.34,2.34,0,0,1,564.25,143.5Z" style="fill:#ebebeb"></path><path d="M639.74,149.18l-.16.27a52.37,52.37,0,0,1-5.09,6.59,49,49,0,0,1-7.45,6.87,53.25,53.25,0,0,1-17.46,8.76,54.68,54.68,0,0,1-7.48,1.59l-.73.12h-.44l-.41-.26.47-.34a57.55,57.55,0,0,0,14.16-13.73,65.28,65.28,0,0,0,5.78-9.59.41.41,0,0,1,.44-.28h18.37Z" style="fill:#ebebeb"></path><path d="M621.78,116.27H596.57v-22h19.68a.37.37,0,0,1,.4.27,61.84,61.84,0,0,1,4,12.9,66.35,66.35,0,0,1,1,7C621.68,115,621.73,115.62,621.78,116.27Z" style="fill:#ebebeb"></path><path d="M621.63,122.15c0,.52,0,1-.08,1.55-.11,1.23-.19,2.46-.36,3.68-.24,1.69-.5,3.38-.84,5.05a59.27,59.27,0,0,1-3.27,10.75.42.42,0,0,1-.46.33h-20.2V122.15Z" style="fill:#ebebeb"></path><path d="M590.88,94.37v22.06H566.27c0-.56.05-1.1.1-1.65.13-1.23.23-2.47.43-3.69.3-1.87.62-3.74,1-5.6a57.65,57.65,0,0,1,3.56-10.85.38.38,0,0,1,.42-.27h19.08Z" style="fill:#ebebeb"></path><path d="M590.91,122.44q0,10.38,0,20.74v.32H571.23a.4.4,0,0,1-.43-.29,56,56,0,0,1-3.35-11.11c-.37-2-.65-3.94-.9-5.92-.16-1.29-.2-2.6-.29-3.9,0,0,0-.07,0-.14H590.6C590.85,122.12,590.91,122.2,590.91,122.44Z" style="fill:#ebebeb"></path><path d="M648.51,116.43H627.85A71.65,71.65,0,0,0,623,94.23h19.25a.43.43,0,0,1,.45.27,54.15,54.15,0,0,1,4.77,13.82,59.37,59.37,0,0,1,1,7.74C648.52,116.17,648.51,116.29,648.51,116.43Z" style="fill:#ebebeb"></path><path d="M648.53,122c0,.5,0,1-.07,1.45a53.05,53.05,0,0,1-4.48,18c-.28.64-.58,1.27-.87,1.91a.29.29,0,0,1-.31.19h-19l-.2,0c.23-.66.46-1.3.68-1.94a67.39,67.39,0,0,0,2.55-10.06,65.28,65.28,0,0,0,.89-7.5c0-.59.07-1.18.1-1.78,0-.15,0-.23.21-.22h20.48Z" style="fill:#ebebeb"></path><path d="M639.17,88.61s0,0,0,.08H620.8a.42.42,0,0,1-.44-.25,61.93,61.93,0,0,0-9-13.29,49.79,49.79,0,0,0-6.88-6.34c-1.23-1-2.51-1.84-3.77-2.75l-.21-.16.25-.17c0-.12-.07-.24-.12-.39a54,54,0,0,1,38.51,23.27Z" style="fill:#ebebeb"></path><path d="M587.39,173.13a2.08,2.08,0,0,1-.53.09,49,49,0,0,1-5.89-1.15,52.46,52.46,0,0,1-10.49-3.88,53.64,53.64,0,0,1-10.68-7,50.73,50.73,0,0,1-6.43-6.43,53.19,53.19,0,0,1-4-5.55l-.08-.17H566.4a.4.4,0,0,1,.42.27A65,65,0,0,0,573,159.37a63.27,63.27,0,0,0,7.24,8,55.3,55.3,0,0,0,7,5.61Z" style="fill:#ebebeb"></path><path d="M587.16,65.87c-.77.57-1.67,1.2-2.55,1.88a62.84,62.84,0,0,0-8.15,7.58,56.92,56.92,0,0,0-8.55,12.21c-.15.28-.28.56-.44.83a.39.39,0,0,1-.26.17c-.3,0-.61,0-.92,0H549.84C559,75.61,571.31,67.83,587,65.45l-.1.21Z" style="fill:#ebebeb"></path><path d="M614.26,149.2a59.24,59.24,0,0,1-8.33,11.26,52.16,52.16,0,0,1-9.51,8.07V149.2Z" style="fill:#ebebeb"></path><path d="M590.88,149.21v18.95a54.75,54.75,0,0,1-17.11-18.95Z" style="fill:#ebebeb"></path><path d="M613.69,88.53H596.57V70.46a52.3,52.3,0,0,1,9.61,8.05A60.1,60.1,0,0,1,613.69,88.53Z" style="fill:#ebebeb"></path><path d="M590.88,71V88.67H574.45A52.09,52.09,0,0,1,590.88,71Z" style="fill:#ebebeb"></path></g><rect x="139.83" y="57.62" width="130.11" height="87.68" style="fill:#fff"></rect><path d="M270.44,145.8H139.33V57.12H270.44Zm-130.11-1H269.44V58.12H140.33Z" style="fill:#ebebeb"></path><path d="M152.4,64.26a3,3,0,1,1-3-3A3,3,0,0,1,152.4,64.26Z" style="fill:#37474f"></path><path d="M164.64,64.26a3,3,0,1,1-3-3A3,3,0,0,1,164.64,64.26Z" style="fill:#ebebeb"></path><path d="M176.87,64.26a3,3,0,1,1-3-3A3,3,0,0,1,176.87,64.26Z" style="fill:#FFF159"></path><rect x="139.83" y="70.33" width="130.11" height="1" style="fill:#ebebeb"></rect></g><g id="freepik--Shadow--inject-2"><ellipse cx="375" cy="412.54" rx="328.77" ry="41.32" style="fill:#ebebeb"></ellipse></g><g id="freepik--Floor--inject-2"><polygon points="50.72 358.19 131.79 357.95 212.86 357.86 375 357.69 537.14 357.86 618.21 357.95 699.28 358.19 618.21 358.44 537.14 358.52 375 358.69 212.86 358.52 131.79 358.43 50.72 358.19" style="fill:#263238"></polygon></g><g id="freepik--Device--inject-2"><rect x="178.55" y="97.16" width="391.21" height="261.69" style="fill:#dbdbdb"></rect><rect x="181.4" y="100.35" width="385.53" height="255.31" style="fill:#263238"></rect><rect x="127.6" y="378.47" width="493.12" height="17.96" style="fill:#c7c7c7"></rect><polygon points="127.6 378.47 178.55 358.85 569.77 358.85 620.72 378.47 127.6 378.47" style="fill:#dbdbdb"></polygon><polygon points="183.1 371.51 215.98 358.85 532.33 358.85 565.22 371.51 183.1 371.51" style="fill:#263238"></polygon><rect x="203.18" y="119.75" width="341.95" height="216.51" style="fill:#fff"></rect><rect x="202.89" y="119.75" width="342.24" height="8.33" style="fill:#455a64"></rect><path d="M209.52,123.91a2.07,2.07,0,1,1-2.07-2.06A2.07,2.07,0,0,1,209.52,123.91Z" style="fill:#c7c7c7"></path><path d="M218,123.91a2.07,2.07,0,1,1-2.06-2.06A2.07,2.07,0,0,1,218,123.91Z" style="fill:#fff"></path><path d="M226.39,123.91a2.07,2.07,0,1,1-2.07-2.06A2.07,2.07,0,0,1,226.39,123.91Z" style="fill:#FFF159"></path></g><g id="freepik--Plant--inject-2"><path d="M628.15,310a45.62,45.62,0,0,0,.88,17.57,48.61,48.61,0,0,0,2.7,7.77c1.39,3.21,2.86,6.35,2.5,9.87-.34.22.83.19.87-.16,9.4-5.35,21.45-6.33,28.68-15.08,3.43-4.14,5.16-9.39,6-14.65.89-5.72,1.14-12.05-.34-17.69-1.24-4.76-4-9.36-8.51-11.7s-10.68-2.2-15.55-.69C634.85,288.51,629.63,299.85,628.15,310Z" style="fill:#FFF159"></path><path d="M623.32,379.59c1.28-4.28,2.56-8.55,3.88-12.82,2.58-8.35,5.26-16.67,8.23-24.9q2.67-7.39,5.63-14.64a87.6,87.6,0,0,0-1.13-9.08c-.78-3.65-1.92-7.17-3-10.74-.06-.21.29-.33.38-.12,2.11,4.91,4.87,11.2,4.94,17q3.43-8.21,7.38-16.17a69,69,0,0,0-.41-13.47.16.16,0,0,1,.32-.06,48.13,48.13,0,0,1,.92,11.89q3-6,6.41-11.82c.21-.34.69,0,.51.36q-5.29,10.2-9.88,20.78a45.16,45.16,0,0,1,14.73-8.53c.24-.09.41.25.18.35a53.53,53.53,0,0,0-15.94,10.55q-3.32,7.74-6.32,15.59c5.88-5.77,13.93-9.56,21.71-11.6.27-.07.34.34.08.42-9,2.71-16,7.82-22.86,13.95-.79,2.12-1.58,4.24-2.34,6.36q-4.35,12.09-8.29,24.32-1.9,5.85-3.74,11.73c-1.31,4.22-2.34,8.67-4.05,12.74-.16.39-.86.3-.77-.17A122,122,0,0,1,623.32,379.59Z" style="fill:#263238"></path><path d="M638.91,301.78a23.32,23.32,0,0,1,3.39,8.44c0,.07-.11.12-.14,0a71.88,71.88,0,0,0-3.67-8.28C638.35,301.71,638.75,301.54,638.91,301.78Z" style="fill:#263238"></path><path d="M655.68,321.36a24.93,24.93,0,0,1,8.44-2.84c.07,0,.12.11,0,.14-1.35.56-2.78.95-4.15,1.48s-2.72,1.17-4.12,1.66A.24.24,0,0,1,655.68,321.36Z" style="fill:#263238"></path><path d="M660.41,297.8a16.46,16.46,0,0,1,2.71-1.67.14.14,0,0,1,.15.24,17,17,0,0,1-2.67,1.73C660.43,298.21,660.24,297.92,660.41,297.8Z" style="fill:#263238"></path><path d="M596.46,341.93c6.77,2,13.57,3.87,20.34,5.86.59.17,12-21.76,7.9-33.05-3.83-10.46-12.58-18.29-23-21.84-4.84-1.64-10.78-3-15.89-1.89-4.54,1-7.74,4.72-9.22,9-2,5.8-1.34,12.72-.25,18.65A32.7,32.7,0,0,0,583,333.87C586.59,338.14,591.18,340.37,596.46,341.93Z" style="fill:#FFF159"></path><path d="M586.64,321.09a90.89,90.89,0,0,0,13.28,5.23,56.28,56.28,0,0,1,8.86,3.2c-2.86-6.37-6-12.61-9.33-18.79-4.37-1.27-9-3.24-12.27-6.34a.18.18,0,0,1,.24-.28c3.61,2.54,7.59,4.08,11.58,5.8q-1.35-2.51-2.73-5c-.26-.46.37-.92.68-.47a142.82,142.82,0,0,1,9.62,16.16,73.9,73.9,0,0,0,.7-14.8.1.1,0,0,1,.2,0,49.63,49.63,0,0,1-.17,16.27c2.37,4.74,4.54,9.59,6.48,14.51.77-3,1.78-5.86,2.45-8.84a40.83,40.83,0,0,0,1-13c0-.13.17-.14.19,0a45.87,45.87,0,0,1-2.84,23.93c1.14,2.95,2.22,5.92,3.2,8.9a177.49,177.49,0,0,1,9,47,.29.29,0,0,1-.57,0,233.17,233.17,0,0,0-10.09-46.42c-2-5.9-4.23-11.63-6.71-17.25-4-1.18-8-2.79-11.9-4.15s-7.76-2.86-11-5.38A.14.14,0,0,1,586.64,321.09Z" style="fill:#263238"></path><path d="M580.33,314.72c4.14,1.47,8.06,3.53,12.2,5,.19.07.08.37-.11.33-4.38-.9-8.72-2.25-12.25-5.12C580,314.85,580.19,314.67,580.33,314.72Z" style="fill:#263238"></path><path d="M614.14,305.79c0-.22.27-.35.33-.12,1.14,3.81,1.92,7.86.82,11.76a.15.15,0,0,1-.29,0C614.8,313.49,615,309.66,614.14,305.79Z" style="fill:#263238"></path><path d="M597,297a10.1,10.1,0,0,1,1.8,6.49c0,.15-.24.23-.28.06-.51-2.18-1.35-4.17-2-6.3A.28.28,0,0,1,597,297Z" style="fill:#263238"></path><path d="M677,351.61c-2,6.29-6.7,15-14.17,15.07-4.84.05-9.71-.53-14.57-.59-5.19-.09-10.4-.07-15.59.24-.42,0,.62-15.57,13.12-23.16,3.49-2.12,7.77-2.8,11.74-3.66a54.62,54.62,0,0,1,13.89-1.44c2.86.11,5.25.72,6.27,3.66S677.94,348.61,677,351.61Z" style="fill:#FFF159"></path><path d="M671.61,343.72c-3,.78-6.1,1.68-9.14,2.65a30.69,30.69,0,0,1,2.51-2.46c1.31-1.09,2.75-2,4.15-2.91.12-.08,0-.3-.1-.24a17.15,17.15,0,0,0-7.37,5.86c-3.79,1.22-7.55,2.58-11.17,4.06a42.31,42.31,0,0,0-7.16,3.77,30.09,30.09,0,0,1,2.59-4.51c1.66-2.14,3.9-3.34,6.07-4.87a.19.19,0,0,0-.19-.33,17.74,17.74,0,0,0-9.74,10.56,41.27,41.27,0,0,0-7.09,6.44c-8.26,9.38-14.77,21.87-14.8,34.62,0,.3.49.39.55.07a70.55,70.55,0,0,1,15.76-33.85c.59-.69,1.2-1.35,1.82-2a55.45,55.45,0,0,1,6.82-.51c2.66,0,5.3.39,8,.61,4.36.35,9.18.4,13.12-1.79.17-.1,0-.4-.14-.33-8.77,3.19-18-.86-26.76,1.05a41,41,0,0,1,13-8.36l.81-.33c5.63.68,11.57,2.15,17.05.32.16-.06.1-.31-.07-.26-5.3,1.32-10.38-.34-15.6-.61,5.69-2.21,11.49-4,17.2-6.18C672.12,344,672.13,343.59,671.61,343.72Z" style="fill:#263238"></path><path d="M674.09,349.26a72.45,72.45,0,0,1-8.19.62.06.06,0,0,0,0,.12,17,17,0,0,0,8.26-.53C674.29,349.43,674.23,349.24,674.09,349.26Z" style="fill:#263238"></path><path d="M655.59,343.86a13.43,13.43,0,0,0-4.05,2.82c-.14.13.05.38.2.27.69-.5,1.4-1,2.11-1.44a21.2,21.2,0,0,0,2-1.24A.25.25,0,0,0,655.59,343.86Z" style="fill:#263238"></path><path d="M611.49,364.14c.09.21-.21.4-.32.19,0,0,0,0,0,0a.27.27,0,0,1-.19.13,125.86,125.86,0,0,1-15.26,2.66c-4.13.37-8.89.6-12.51-1.8-4.89-3.25-8.12-11.93-5.47-17.45,3.13-6.55,12.58-3,17.31-.67A34.79,34.79,0,0,1,611.49,364.14Z" style="fill:#FFF159"></path><path d="M615.15,367.17a48.51,48.51,0,0,0-9.11-6.93,31,31,0,0,0-9.24-9.42c-.18-.13-.33.16-.17.28a42,42,0,0,1,7.79,8.2A85.36,85.36,0,0,0,593,354.1a15.24,15.24,0,0,0-6.14-6.16c-.05,0-.12.05-.07.09a24.9,24.9,0,0,1,5.55,5.82c-2.33-.87-4.67-1.68-7-2.45-.21-.07-.29.25-.09.32,4.18,1.63,8.44,3.35,12.58,5.34a48.33,48.33,0,0,1-15.23-.05c-.14,0-.2.18-.06.22a30.06,30.06,0,0,0,16.16.24,76.27,76.27,0,0,1,7.66,4.29,19.45,19.45,0,0,0-6.19.51,47,47,0,0,1-10.89,1.23c-.14,0-.17.23,0,.25,6.31,1.09,12.29-1.78,18.55-1a46.57,46.57,0,0,1,16,18.74c2.64,5.36,4.07,11.05,6.2,16.59a.2.2,0,0,0,.38-.11C628.55,387,623.11,375,615.15,367.17Z" style="fill:#263238"></path><path d="M596.1,352.19a7.06,7.06,0,0,0-1.61-2,6.37,6.37,0,0,0-1.87-1.4c-.06,0-.1.06-.06.11.52.58,1.24,1,1.8,1.58s1,1.23,1.6,1.78A.09.09,0,0,0,596.1,352.19Z" style="fill:#263238"></path><path d="M585.69,355.58c-.94-.23-1.93-.22-2.88-.41a26.4,26.4,0,0,1-2.79-.84.12.12,0,0,0-.09.21,9.23,9.23,0,0,0,5.76,1.33A.15.15,0,0,0,585.69,355.58Z" style="fill:#263238"></path><polygon points="641.17 384.47 640.34 393.88 637.53 425.67 612.64 425.67 609.12 393.88 608.09 384.47 641.17 384.47" style="fill:#455a64"></polygon><polygon points="641.17 384.47 640.34 393.88 609.12 393.88 608.09 384.47 641.17 384.47" style="fill:#263238"></polygon><rect x="605.62" y="381.9" width="38.02" height="7.64" style="fill:#455a64"></rect></g><g id="freepik--searh-engine--inject-2"><rect x="151.75" y="159.98" width="446.5" height="60.92" style="fill:#fff"></rect><path d="M598.75,221.4H151.25V159.48h447.5Zm-446.5-1h445.5V160.48H152.25Z" style="fill:#c7c7c7"></path><rect x="537.33" y="159.98" width="60.92" height="60.92" style="fill:#FFF159"></rect><path d="M587.1,207.52l-5.63,4.26L571.05,198l-3.81-5a8.76,8.76,0,0,0,2.18-1.23,9.19,9.19,0,0,0,2.89-3.75l4.05,5.34Z" style="fill:#fff"></path><path d="M576,175.11a15.36,15.36,0,1,0-5,22.91,15.59,15.59,0,0,0,5.31-4.68A15.36,15.36,0,0,0,576,175.11Zm-6.6,16.64a8.76,8.76,0,0,1-2.18,1.23,9.11,9.11,0,1,1,2.18-1.23Z" style="fill:#fff"></path><rect x="164.49" y="171.96" width="3.27" height="36.97" style="fill:#263238"></rect></g><g id="freepik--Pointer--inject-2"><polygon points="382.8 244.53 389.07 259.67 382.81 262.26 376.51 247.02 366.17 255.04 366.17 212.41 396.01 242.56 382.8 244.53" style="fill:#263238"></polygon><path d="M366.53,206.74a7.59,7.59,0,0,1-.5-2.83,7.38,7.38,0,0,1,.5-2.82,7.19,7.19,0,0,1,.5,2.82A7.39,7.39,0,0,1,366.53,206.74Z" style="fill:#263238"></path><path d="M361.66,208.76a7.49,7.49,0,0,1-2.35-1.65,7.27,7.27,0,0,1-1.65-2.35,8.22,8.22,0,0,1,4,4Z" style="fill:#263238"></path><path d="M359.64,213.63a7.57,7.57,0,0,1-2.82.5,7.39,7.39,0,0,1-2.83-.5,7.21,7.21,0,0,1,2.83-.5A7.38,7.38,0,0,1,359.64,213.63Z" style="fill:#263238"></path><path d="M361.66,218.5a7.63,7.63,0,0,1-1.64,2.35,7.42,7.42,0,0,1-2.36,1.65,7.42,7.42,0,0,1,1.65-2.36A7.63,7.63,0,0,1,361.66,218.5Z" style="fill:#263238"></path><path d="M373.42,213.63a7.39,7.39,0,0,1,2.83-.5,7.19,7.19,0,0,1,2.82.5,7.38,7.38,0,0,1-2.82.5A7.59,7.59,0,0,1,373.42,213.63Z" style="fill:#263238"></path><path d="M371.4,208.76a8.33,8.33,0,0,1,4-4,8.33,8.33,0,0,1-4,4Z" style="fill:#263238"></path></g></svg>